<svg xmlns="http://www.w3.org/2000/svg" width="50" height="50" viewBox="0 0 50 50">
    <g fill="#9FAAB7" fill-rule="nonzero">
        <path d="M39.549 14.309a.822.822 0 0 0-.327 1.61c.126.026.22.142.22.27v17.53a.278.278 0 0 1-.273.273H19.686a.822.822 0 1 0 0 1.644h19.483a1.92 1.92 0 0 0 1.917-1.918v-17.53c0-.908-.646-1.699-1.537-1.88zM30.11 14.27H10.683a1.92 1.92 0 0 0-1.917 1.918v17.53c0 .884.6 1.649 1.46 1.86a.822.822 0 0 0 .394-1.595.278.278 0 0 1-.21-.265v-17.53c0-.148.125-.274.274-.274H30.11a.822.822 0 1 0 0-1.643z"/>
        <path d="M25.787 18.713a6.307 6.307 0 0 0-7.101 7.101.822.822 0 0 0 1.628-.222 4.662 4.662 0 0 1 5.25-5.25.821.821 0 1 0 .223-1.629zM24.008 31.186a6.307 6.307 0 0 0 7.15-7.15.822.822 0 0 0-1.626.237 4.662 4.662 0 0 1-5.286 5.286.821.821 0 1 0-.238 1.627zM34.896 22.269a1.81 1.81 0 0 0 1.808-1.808 1.81 1.81 0 0 0-1.587-1.794.823.823 0 0 0-.681.235l-1.099 1.099a.822.822 0 0 0-.234.68 1.81 1.81 0 0 0 1.793 1.588zM12.874 12.572h3.287a.822.822 0 1 0 0-1.643h-3.287a.822.822 0 1 0 0 1.643z"/>
        <path d="M42.678 7.322C37.956 2.6 31.678 0 25 0 18.322 0 12.044 2.6 7.322 7.322 2.6 12.044 0 18.322 0 25c0 6.678 2.6 12.956 7.322 17.678C12.044 47.4 18.322 50 25 50c6.678 0 12.956-2.6 17.678-7.322C47.4 37.956 50 31.678 50 25c0-6.678-2.6-12.956-7.322-17.678zM1.648 25C1.648 12.124 12.124 1.648 25 1.648c6.142 0 11.737 2.385 15.91 6.276L7.924 40.91C4.034 36.737 1.648 31.142 1.648 25zM25 48.352c-6.142 0-11.737-2.385-15.91-6.276L42.076 9.09c3.89 4.173 6.276 9.768 6.276 15.91 0 12.876-10.476 23.352-23.352 23.352z"/>
    </g>
</svg>
